<svg version="1.1" id="Layer_1" xmlns="http://www.w3.org/2000/svg" xmlns:xlink="http://www.w3.org/1999/xlink" x="0px" y="0px"
	 width="100%" viewBox="0 0 1024 1024" enable-background="new 0 0 1024 1024" xml:space="preserve">
<path fill="#000000" opacity="1.000000" stroke="none" 
	d="
M434.670715,392.704773 
	C406.495544,410.261688 386.180786,434.133789 373.214783,464.233917 
	C371.594971,467.994232 369.589966,469.583405 365.387482,469.401611 
	C357.611481,469.065216 349.810577,469.305359 342.424225,469.305359 
	C340.698303,466.823242 341.855164,465.166382 342.484070,463.530121 
	C366.656342,400.638367 411.185944,360.442871 477.101257,345.928741 
	C565.332703,326.500702 654.732483,377.522339 685.064026,463.334137 
	C686.960083,468.698242 686.546997,469.294830 680.736145,469.311279 
	C674.236328,469.329681 667.729614,469.115387 661.239075,469.355804 
	C657.628906,469.489502 655.997375,467.985870 654.578491,464.791199 
	C634.713684,420.064423 601.981445,389.405304 554.601135,375.934998 
	C512.535706,363.975739 472.508636,370.074524 434.670715,392.704773 
z"/>
<path fill="#000000" opacity="1.000000" stroke="none" 
	d="
M506.050873,322.232727 
	C462.286041,324.225769 423.686218,338.772858 389.570740,365.382751 
	C366.889435,383.074005 349.220612,404.915588 335.618866,430.183411 
	C333.681580,433.782349 333.262054,437.032837 334.348297,441.062134 
	C336.903961,450.542175 331.757507,459.332794 322.526123,462.246124 
	C313.581024,465.069061 304.241547,460.663483 300.821960,452.007874 
	C297.404541,443.357727 301.318481,433.238129 309.705627,429.100739 
	C310.597260,428.660858 311.602020,427.979767 312.486267,428.070831 
	C318.878754,428.729614 321.159485,424.472290 323.793854,419.718109 
	C345.109955,381.249390 375.090576,351.437927 414.139252,331.089355 
	C439.181152,318.039825 465.781799,309.540588 494.067383,307.709198 
	C583.551025,301.915344 651.914368,337.735687 699.933655,413.104218 
	C700.916565,414.646912 701.931641,416.215332 702.601318,417.902863 
	C704.908386,423.715759 707.945251,427.381042 715.236389,428.148041 
	C724.100891,429.080566 730.034729,440.221649 727.864136,448.884888 
	C725.396301,458.734650 715.698059,464.782623 706.140564,462.432129 
	C696.282227,460.007629 690.360596,450.415161 693.283569,440.518616 
	C694.398560,436.743713 693.899475,433.932220 692.136292,430.693726 
	C664.216370,379.410858 622.404236,345.308472 566.298889,328.951630 
	C546.799805,323.266876 526.806702,321.400513 506.050873,322.232727 
M314.359863,451.408752 
	C318.092285,452.450348 321.341125,451.898407 323.199982,448.153534 
	C324.569397,445.394653 324.260651,442.608856 321.847473,440.490021 
	C318.837830,437.847504 315.622437,437.569733 312.568207,440.460510 
	C309.310455,443.543976 309.717468,447.048309 314.359863,451.408752 
M713.974060,450.566772 
	C716.757385,448.584076 717.622009,445.875458 716.500854,442.740051 
	C715.618469,440.272400 713.783142,438.624451 711.018738,438.353394 
	C708.059692,438.063232 705.910767,439.462006 704.377075,441.830902 
	C702.736084,444.365601 703.104797,446.875397 704.922913,449.173706 
	C707.205994,452.059631 710.077332,452.451843 713.974060,450.566772 
z"/>
<path fill="#000000" opacity="1.000000" stroke="none" 
	d="
M362.133453,656.855591 
	C355.952362,649.910583 349.868713,643.340271 344.468079,636.027588 
	C352.871033,632.383789 363.591431,634.708496 368.996185,640.688538 
	C398.955505,673.836670 435.782257,695.263916 479.889496,702.507751 
	C548.310181,713.744629 606.975403,693.662964 655.056702,643.917419 
	C662.233093,636.492615 669.215393,633.372253 678.862244,634.635498 
	C679.997192,634.784119 681.136902,634.896240 683.509949,635.165466 
	C653.520203,674.825745 615.789856,702.029358 568.359802,713.955200 
	C489.309418,733.831726 420.632294,713.775635 362.133453,656.855591 
z"/>
<path fill="#000000" opacity="1.000000" stroke="none" 
	d="
M669.839111,543.038696 
	C665.555969,530.546082 661.395630,518.426086 657.268860,506.294769 
	C657.126587,505.876556 657.319519,505.344330 657.395569,504.352020 
	C661.923584,503.342163 666.542603,503.707062 671.093750,504.070892 
	C673.568176,504.268677 673.650024,506.908600 674.238770,508.708099 
	C678.114258,520.553406 681.891846,532.430725 685.785522,544.559814 
	C687.489563,543.791748 687.544495,542.388000 687.932068,541.261108 
	C691.667542,530.401672 695.525208,519.580261 699.004517,508.638763 
	C700.174561,504.959198 702.060730,503.373840 705.825317,503.788849 
	C707.141968,503.933960 708.508789,503.963135 709.816833,503.783630 
	C713.844238,503.230927 715.779785,505.022278 716.982056,508.848724 
	C720.173828,519.006836 723.731384,529.050415 727.173828,539.129089 
	C727.797974,540.956360 728.566833,542.734131 729.819336,545.946411 
	C733.479309,534.433105 736.698242,524.340515 739.895447,514.241089 
	C743.606201,502.519440 743.598389,502.512939 755.971313,503.892181 
	C756.447449,503.945251 756.899414,504.214355 757.370239,504.385559 
	C758.594116,506.290558 757.387695,507.965668 756.829285,509.595551 
	C750.788330,527.228882 744.605957,544.814209 738.659485,562.479004 
	C737.588684,565.659973 736.028259,567.008911 732.636230,567.102417 
	C722.506531,567.381531 722.528320,567.490479 719.266907,558.055176 
	C715.632324,547.540344 711.959290,537.038818 707.889038,525.341980 
	C706.343628,529.519409 705.147949,532.684692 704.000000,535.867249 
	C700.780884,544.792297 697.459045,553.683350 694.439575,562.675781 
	C693.358826,565.894653 691.615234,567.353027 688.265442,567.095398 
	C686.609924,566.968079 684.924255,566.962219 683.272217,567.115723 
	C679.571594,567.459778 677.479614,566.099487 676.380188,562.320129 
	C674.522705,555.935059 672.133057,549.704773 669.839111,543.038696 
z"/>
<path fill="#000000" opacity="1.000000" stroke="none" 
	d="
M592.804749,521.256836 
	C595.504822,525.651733 597.250305,530.208435 600.478760,533.957947 
	C603.214233,532.825623 603.934998,530.258423 605.163635,528.206787 
	C609.184570,521.492859 613.014099,514.664612 617.003418,507.931396 
	C620.185303,502.561096 622.423828,502.645477 627.228271,506.288116 
	C634.547119,511.837189 637.170044,518.588135 636.504700,527.763123 
	C635.711792,538.699036 636.157349,549.740845 636.413696,560.728699 
	C636.514099,565.032471 635.277405,566.640564 630.790771,566.475891 
	C622.072510,566.155823 621.750916,568.458862 621.789612,557.737976 
	C621.824219,548.136902 621.796875,538.535522 620.791748,528.607483 
	C615.962952,536.287964 611.101196,543.948120 606.315491,551.655396 
	C602.351562,558.039368 598.926392,558.040344 595.078247,551.585205 
	C590.395447,543.729980 585.701050,535.881653 579.987366,528.187317 
	C579.987366,532.853943 579.981689,537.520508 579.988892,542.187134 
	C579.996643,547.184204 580.018066,552.181335 580.031006,557.178406 
	C580.054932,566.476868 577.848755,568.190918 568.387268,566.526794 
	C566.246643,566.150208 565.655945,565.007996 565.655701,563.120117 
	C565.652893,544.630920 565.634460,526.141724 565.644653,507.652527 
	C565.645264,506.508606 565.640869,505.309418 566.687805,504.460541 
	C569.702637,502.016022 582.819702,504.186340 584.834961,507.551544 
	C587.486938,511.979858 590.029846,516.473450 592.804749,521.256836 
z"/>
<path fill="#000000" opacity="1.000000" stroke="none" 
	d="
M423.985870,524.000854 
	C423.986206,518.670776 424.081177,513.837952 423.952820,509.011108 
	C423.858978,505.482239 425.178314,503.734955 428.898254,503.885315 
	C438.203033,504.261383 447.515533,503.414429 456.832275,504.586395 
	C474.451111,506.802643 484.894043,518.707336 484.393768,536.490540 
	C483.930511,552.958008 471.637756,565.456665 454.712036,566.242554 
	C445.900757,566.651611 437.059021,566.359192 428.235016,566.559998 
	C424.436676,566.646484 423.897888,564.530334 423.915955,561.477173 
	C423.988861,549.151917 423.969849,536.826172 423.985870,524.000854 
M469.558716,533.005920 
	C468.006714,523.967346 462.404602,518.990051 453.604095,517.553284 
	C450.680878,517.076050 447.617340,517.535034 444.639282,517.298157 
	C440.574890,516.974854 438.921265,518.561218 439.047211,522.726929 
	C439.263336,529.873413 439.123383,537.031250 439.097076,544.184265 
	C439.059662,554.371277 439.102356,554.422546 449.413849,553.548645 
	C463.078888,552.390625 469.361603,546.255066 469.558716,533.005920 
z"/>
<path fill="#000000" opacity="1.000000" stroke="none" 
	d="
M337.086670,503.929321 
	C346.211761,504.249939 354.865143,503.319092 363.501923,504.581726 
	C373.998779,506.116272 381.230743,511.062042 382.856537,519.254272 
	C384.546082,527.767761 383.606018,537.531555 372.888123,543.733582 
	C372.342438,544.049316 371.928680,544.593201 371.124176,545.334045 
	C374.921844,552.579163 380.936676,558.266785 384.990601,565.291077 
	C376.258057,568.652405 368.591431,566.532837 363.453003,559.486023 
	C361.099152,556.257874 358.693634,553.067200 356.362823,549.822632 
	C355.226593,548.240906 353.870361,547.387512 351.826782,547.217041 
	C343.798676,546.547058 343.350800,546.892883 343.341949,554.946655 
	C343.341003,555.779114 343.338074,556.611572 343.338226,557.444031 
	C343.340240,568.131531 343.613556,565.894287 334.593872,566.579834 
	C329.991364,566.929626 328.534607,565.560669 328.611633,560.848999 
	C328.878296,544.536987 328.707336,528.217957 328.710358,511.901550 
	C328.711853,503.927094 328.719238,503.927094 337.086670,503.929321 
M366.644135,531.093506 
	C370.106293,524.806152 368.716309,520.044189 362.429443,518.100769 
	C356.958893,516.409729 350.895538,516.305237 345.722168,517.816467 
	C340.774536,519.261719 343.960693,525.009827 343.437714,528.802063 
	C343.164551,530.782471 342.164764,534.423096 345.515228,534.467102 
	C352.466675,534.558533 359.860077,536.744873 366.644135,531.093506 
z"/>
<path fill="#000000" opacity="1.000000" stroke="none" 
	d="
M502.624878,564.392334 
	C497.659576,568.337769 492.456909,565.692200 486.403198,566.504028 
	C489.109802,560.332764 491.336273,555.183960 493.620789,550.061157 
	C499.929199,535.914856 506.407135,521.841492 512.488892,507.598663 
	C514.134460,503.744873 516.790161,503.337097 520.067017,503.719330 
	C523.698486,504.142944 528.073975,501.816620 530.369751,507.167633 
	C538.379700,525.837402 546.627380,544.405151 554.776978,563.015015 
	C555.172302,563.917725 555.645325,564.838196 554.650085,566.568115 
	C550.966125,566.568115 546.858276,566.634888 542.753967,566.543335 
	C540.245361,566.487366 539.344666,564.400330 538.931274,562.502869 
	C537.241089,554.744751 532.599670,551.863098 524.899597,553.304443 
	C523.128357,553.636047 521.196777,553.621460 519.417480,553.313110 
	C510.505035,551.768799 504.644867,554.768616 502.624878,564.392334 
M519.703125,540.856689 
	C521.854004,540.821045 524.006775,540.829407 526.155212,540.736389 
	C528.000305,540.656433 529.120911,539.619446 528.395508,537.820801 
	C526.292175,532.605469 523.977600,527.475403 521.355347,521.408264 
	C518.171204,528.284607 515.245789,533.796570 513.671509,539.897583 
	C515.537354,541.133423 517.227722,540.744507 519.703125,540.856689 
z"/>
<path fill="#000000" opacity="1.000000" stroke="none" 
	d="
M286.008087,558.887512 
	C285.653534,561.702820 287.054901,565.238708 284.076508,565.948669 
	C280.142853,566.886292 275.816589,567.146423 271.824890,565.731689 
	C270.525482,565.271118 270.883606,563.373230 270.882507,562.070496 
	C270.867676,544.427734 270.927094,526.784790 270.842102,509.142456 
	C270.825073,505.606750 272.064941,503.943054 275.751221,503.959686 
	C288.733063,504.018219 301.715973,503.988922 314.697479,503.878418 
	C318.041168,503.849976 319.712555,505.016815 319.358246,508.545166 
	C319.209290,510.028534 319.224182,511.546844 319.343903,513.034851 
	C319.608337,516.322327 318.053772,517.415466 314.912018,517.369141 
	C307.091034,517.253784 299.261993,517.505981 291.446594,517.268188 
	C287.376770,517.144348 285.857025,518.479736 285.887512,522.662903 
	C285.947174,530.866089 285.742950,530.863586 294.162537,530.833618 
	C299.821472,530.813538 305.487091,530.972473 311.137634,530.748169 
	C316.938507,530.517822 315.678131,534.654114 315.947876,537.938293 
	C316.247986,541.591675 315.463104,544.377258 310.931885,543.844604 
	C304.276703,543.062073 297.634949,544.234192 290.991394,543.883606 
	C287.331573,543.690491 285.853912,545.304810 286.029083,548.919678 
	C286.181946,552.073669 286.028320,555.242615 286.008087,558.887512 
z"/>
<path fill="#000000" opacity="1.000000" stroke="none" 
	d="
M394.862366,521.002197 
	C394.867798,516.676453 395.000031,512.845093 394.843170,509.025604 
	C394.699005,505.514893 395.918091,503.942627 399.675781,503.838776 
	C409.333984,503.571747 409.336578,503.430084 409.344147,513.033691 
	C409.356750,529.003845 409.248291,544.975403 409.442627,560.943298 
	C409.493805,565.149414 408.549988,566.869812 403.878479,566.600281 
	C394.882721,566.081177 394.868835,566.363892 394.869019,557.434814 
	C394.869293,545.457092 394.865295,533.479431 394.862366,521.002197 
z"/>
<path fill="#000000" opacity="1.000000" stroke="none" 
	d="
M677.980713,612.200562 
	C679.461548,612.038574 680.629639,611.865540 681.140747,610.601257 
	C681.077454,609.952148 680.670227,609.673767 680.138062,609.817139 
	C676.280518,610.856201 673.457581,609.398315 672.064880,605.866699 
	C670.842896,602.768188 671.070435,599.517395 673.917542,597.213440 
	C676.986023,594.730347 680.560791,595.843445 683.992065,596.252319 
	C684.132202,596.269043 684.262939,596.424927 684.383972,596.531921 
	C685.495483,597.514160 685.877502,609.506042 684.758362,611.689026 
	C683.081360,614.960144 680.154541,615.776978 676.753906,615.453735 
	C674.907959,615.278259 673.179504,614.874084 672.562256,612.715637 
	C674.189087,610.629333 676.003601,612.204285 677.980713,612.200562 
M678.488708,599.187500 
	C675.967041,599.370483 675.114685,600.922668 675.311890,603.206909 
	C675.470947,605.049133 676.505798,606.288025 678.373779,606.486084 
	C679.848450,606.642395 680.970520,605.739563 681.337341,604.395996 
	C681.925293,602.242310 682.051453,600.088684 678.488708,599.187500 
z"/>
<path fill="#000000" opacity="1.000000" stroke="none" 
	d="
M431.341248,603.524536 
	C430.999634,605.941345 432.113953,608.281799 429.763794,610.088379 
	C426.864075,608.873596 427.974823,606.263184 427.726074,604.215576 
	C427.496552,602.325928 428.223114,599.637268 425.421814,599.473816 
	C422.436157,599.299561 422.472870,601.953918 422.285614,604.151123 
	C422.115234,606.150757 422.931335,608.461060 420.860107,610.074951 
	C418.773254,607.944946 417.622528,598.126648 419.441711,596.769226 
	C421.641785,595.127563 424.590240,595.345581 427.078033,595.784973 
	C429.408691,596.196655 431.488373,596.530457 433.803802,595.775024 
	C435.605042,595.187500 437.426086,595.605957 438.817200,597.135925 
	C441.025085,599.564148 440.901062,606.773254 438.496979,610.023499 
	C435.830414,608.537170 437.012970,605.948547 436.740112,603.830444 
	C436.512482,602.063843 436.991852,599.772400 434.497681,599.478271 
	C432.096710,599.195190 431.586670,601.173584 431.341248,603.524536 
z"/>
<path fill="#000000" opacity="1.000000" stroke="none" 
	d="
M554.394775,598.411987 
	C559.492004,594.264160 564.295166,595.001953 566.413940,599.917542 
	C567.820862,603.181641 567.144714,605.129944 563.155823,604.842346 
	C561.506653,604.723450 559.863403,604.585754 558.333862,605.679932 
	C560.073486,609.684814 563.586060,605.023376 565.912781,607.546265 
	C564.414795,611.476074 561.231567,611.397583 558.015076,610.363220 
	C553.573120,608.934814 552.218445,604.486328 554.394775,598.411987 
z"/>
<path fill="#000000" opacity="1.000000" stroke="none" 
	d="
M452.084167,610.835205 
	C448.765808,610.635254 446.314362,609.468384 446.089111,606.305359 
	C445.713684,601.033691 451.223389,602.386841 453.784424,600.328552 
	C452.004852,597.780518 448.985718,601.006714 447.457306,598.527405 
	C450.038483,594.604309 456.054199,594.735840 458.019806,598.875305 
	C459.407471,601.797668 459.453156,605.052917 458.753052,608.143433 
	C457.962494,611.633301 454.436615,609.531799 452.084167,610.835205 
z"/>
<path fill="#000000" opacity="1.000000" stroke="none" 
	d="
M694.276001,611.425354 
	C696.315369,609.657288 694.893738,608.235046 694.291382,606.790283 
	C692.905518,603.466431 690.869446,600.379456 690.403931,595.838623 
	C695.804260,596.069946 694.571777,601.794250 697.399963,603.606873 
	C700.665405,602.023010 698.829041,596.172241 704.593140,595.818115 
	C702.716492,602.694946 700.533325,608.913147 696.735046,614.433655 
	C695.804443,615.786255 693.792908,615.816040 692.098877,615.378784 
	C691.192993,615.144897 690.631592,614.430664 690.817017,613.533997 
	C691.164978,611.851440 692.869324,612.149658 694.276001,611.425354 
z"/>
<path fill="#000000" opacity="1.000000" stroke="none" 
	d="
M500.413666,609.587524 
	C496.536560,611.463379 493.211060,611.295166 490.666687,608.055664 
	C488.533966,605.340332 488.258240,602.250977 489.992859,599.162781 
	C491.689972,596.141663 494.464264,595.388855 497.683563,595.745300 
	C500.244446,596.028809 502.164886,597.469543 502.940979,599.792236 
	C504.115967,603.309021 503.785858,606.715759 500.413666,609.587524 
M499.032349,600.593323 
	C496.451416,598.363403 494.457764,599.008057 493.340302,602.028809 
	C492.744904,603.638306 493.181763,605.349609 494.532745,606.595398 
	C495.473053,607.462463 496.585083,607.653320 497.729919,606.943909 
	C499.990753,605.542847 499.936462,603.457275 499.032349,600.593323 
z"/>
<path fill="#000000" opacity="1.000000" stroke="none" 
	d="
M628.285889,610.517822 
	C623.622314,609.498718 621.787598,606.485107 621.977356,602.432251 
	C622.139526,598.968140 624.161438,596.535034 627.743530,595.811401 
	C632.094360,594.932495 635.546448,597.234436 636.240417,601.391052 
	C637.162720,606.915649 634.817139,609.754456 628.285889,610.517822 
M632.690796,602.625305 
	C632.121887,600.118713 630.637939,598.642212 628.072021,599.632141 
	C625.807739,600.505737 625.793274,602.686462 626.320679,604.730408 
	C626.671326,606.089111 627.599121,607.274658 629.047119,607.248718 
	C631.426453,607.206055 632.449036,605.548584 632.690796,602.625305 
z"/>
<path fill="#000000" opacity="1.000000" stroke="none" 
	d="
M666.266846,604.640137 
	C663.781006,610.256348 661.174072,611.812500 657.161255,610.268372 
	C653.239502,608.759338 651.413757,605.792542 652.103333,601.639893 
	C652.769897,597.625793 656.477966,595.098877 660.601746,595.763611 
	C665.409973,596.538818 666.507874,599.987732 666.266846,604.640137 
M660.764587,606.896057 
	C663.424683,604.860474 663.578125,602.466003 661.338135,600.161377 
	C660.038086,598.823792 658.215088,598.912292 656.944946,600.395996 
	C655.341248,602.269287 655.307617,604.300049 657.083374,606.171692 
	C657.912842,607.045898 658.866333,607.659180 660.764587,606.896057 
z"/>
<path fill="#000000" opacity="1.000000" stroke="none" 
	d="
M391.056702,595.711060 
	C396.438904,596.761902 398.885010,599.734192 398.217438,604.188904 
	C397.633209,608.087280 395.336945,610.620728 391.304962,610.618286 
	C387.237061,610.615784 384.377899,608.532043 383.779083,604.239746 
	C383.165527,599.842224 385.491882,597.044495 391.056702,595.711060 
M394.612091,603.320618 
	C394.528809,601.324585 393.750854,599.803284 391.650208,599.368469 
	C390.209137,599.070251 389.075043,599.744385 388.290375,600.916565 
	C386.903107,602.988953 386.948364,605.114502 389.021698,606.559143 
	C392.029541,608.654968 393.416351,606.453857 394.612091,603.320618 
z"/>
<path fill="#000000" opacity="1.000000" stroke="none" 
	d="
M520.948364,610.190613 
	C517.888184,608.415100 519.340027,605.667603 518.976868,603.354431 
	C518.702454,601.606628 519.071777,599.308105 516.344910,599.474854 
	C514.138916,599.609863 513.578369,601.389343 513.287109,603.364502 
	C512.955078,605.615479 514.350281,608.398804 511.542847,610.055481 
	C509.879333,607.950134 508.906158,598.808472 510.072266,596.972412 
	C511.527527,594.681030 520.534302,595.034729 521.739380,597.764709 
	C523.526489,601.813232 524.674377,606.165894 520.948364,610.190613 
z"/>
<path fill="#000000" opacity="1.000000" stroke="none" 
	d="
M351.894226,609.297424 
	C351.657166,605.312317 351.611053,601.672302 351.619934,598.032532 
	C351.621460,597.407227 351.857208,596.782532 351.945740,596.348755 
	C353.260376,595.359802 354.404724,596.139221 355.525513,596.095642 
	C363.439240,595.787903 366.820618,599.903870 365.013092,607.633057 
	C364.741974,608.792297 364.524414,610.051514 362.986938,609.981506 
	C361.482391,609.913025 361.243439,608.629456 361.105988,607.475464 
	C360.969116,606.326294 361.072083,605.149841 360.956421,603.996704 
	C360.769470,602.132141 361.425812,599.469666 358.445984,599.495544 
	C355.624664,599.520020 355.267365,601.913879 355.175598,604.196655 
	C355.122314,605.522461 355.166748,606.869873 354.935516,608.166260 
	C354.657013,609.727356 353.772522,610.543152 351.894226,609.297424 
z"/>
<path fill="#000000" opacity="1.000000" stroke="none" 
	d="
M607.133118,601.423523 
	C605.736511,604.324158 607.346863,607.478760 605.416565,609.793945 
	C603.716003,610.191345 603.015503,609.324707 602.902710,608.018372 
	C602.745483,606.197144 602.760864,604.358704 602.752808,602.527405 
	C602.723389,595.835999 602.731262,595.835876 609.685669,595.647766 
	C614.188904,595.525879 616.195923,597.640686 616.242859,602.988892 
	C616.263367,605.320496 617.019897,607.917175 614.981140,610.193909 
	C611.434021,608.523010 613.077148,605.482300 612.695374,603.169128 
	C612.039612,599.195984 610.736633,598.631348 607.133118,601.423523 
z"/>
<path fill="#000000" opacity="1.000000" stroke="none" 
	d="
M571.695679,603.823120 
	C571.620789,599.360962 573.452148,596.572083 577.477600,595.886414 
	C580.211792,595.420654 583.037537,595.701416 584.387024,599.276184 
	C581.217346,600.800171 574.886841,596.919861 575.595093,603.853516 
	C576.121948,609.010315 580.444153,606.572083 583.665161,606.152893 
	C584.286926,609.664917 582.049377,610.591370 579.777649,610.724182 
	C575.327393,610.984497 572.601013,608.644043 571.695679,603.823120 
z"/>
<path fill="#000000" opacity="1.000000" stroke="none" 
	d="
M544.859497,600.862122 
	C543.358215,605.154419 546.152283,606.812622 548.961731,608.304932 
	C548.073303,610.844849 546.296326,610.898438 544.432068,610.484009 
	C542.150879,609.976868 541.255859,608.210510 541.000610,606.104614 
	C540.629883,603.046570 541.381348,599.729858 538.420410,597.406128 
	C539.876770,595.430786 541.095703,593.777466 542.448975,591.941895 
	C544.706970,593.534546 545.382996,596.357239 547.852051,596.330811 
	C548.384094,599.370361 545.627502,599.053589 544.859497,600.862122 
z"/>
<path fill="#000000" opacity="1.000000" stroke="none" 
	d="
M593.902588,606.757385 
	C593.617371,608.453003 593.662048,610.067505 591.791260,609.978271 
	C590.030273,609.894409 589.840637,608.385803 589.818298,607.062073 
	C589.740173,602.434387 589.729553,597.805115 589.745300,593.176636 
	C589.749817,591.847046 589.822937,590.383667 591.593201,590.169617 
	C593.119019,589.985107 593.734436,591.233521 593.769348,592.345215 
	C593.867920,595.490906 596.508362,595.590088 599.782654,596.899414 
	C595.037781,598.949402 593.184814,602.037415 593.902588,606.757385 
z"/>
<path fill="#000000" opacity="1.000000" stroke="none" 
	d="
M373.732819,591.678833 
	C377.559692,589.683777 377.559692,589.683777 380.339844,591.667603 
	C380.370209,593.869507 377.798004,592.857361 377.122223,594.323242 
	C376.759705,596.259888 379.938477,595.421692 379.518280,598.075500 
	C373.141571,599.498779 378.397003,606.723022 374.354492,610.540527 
	C370.806244,606.414001 374.950195,600.498657 370.077606,597.706360 
	C371.318939,595.614868 372.402344,593.789429 373.732819,591.678833 
z"/>
<path fill="#000000" opacity="1.000000" stroke="none" 
	d="
M468.550598,592.468384 
	C469.236603,595.167908 471.778290,595.505127 473.416565,596.906555 
	C472.777618,599.567810 469.007080,599.648010 469.228851,603.165222 
	C469.434570,606.427429 472.344910,606.714050 473.719269,608.879456 
	C471.638947,611.635498 469.457245,611.063354 467.430908,609.217346 
	C465.120087,607.112183 464.299561,595.598328 466.099213,593.077087 
	C466.645721,592.311462 467.355682,592.059448 468.550598,592.468384 
z"/>
<path fill="#000000" opacity="1.000000" stroke="none" 
	d="
M404.658112,605.796997 
	C404.652313,602.379211 404.652313,599.422058 404.652313,597.047485 
	C406.087189,595.667603 407.099701,596.051086 408.070587,596.089783 
	C409.728546,596.155884 411.932983,594.261475 412.902161,596.691101 
	C413.814453,598.977966 411.090698,598.937988 409.933289,599.876099 
	C408.302734,601.197571 408.360474,603.033203 408.247803,604.861267 
	C408.133575,606.714355 408.668915,608.844421 406.775513,610.044006 
	C404.405212,609.359375 404.848419,607.660522 404.658112,605.796997 
z"/>
<path fill="#000000" opacity="1.000000" stroke="none" 
	d="
M645.594360,609.258911 
	C643.844360,610.211670 642.889160,609.491455 642.871338,608.145386 
	C642.798767,602.666748 642.872253,597.185120 642.993896,591.706848 
	C643.004333,591.239258 643.767090,590.788269 644.901367,589.529358 
	C647.214783,596.439880 646.149414,602.707153 645.594360,609.258911 
z"/>
<path fill="#000000" opacity="1.000000" stroke="none" 
	d="
M340.698303,606.695862 
	C341.002350,601.200439 339.948395,596.018311 341.356598,591.199524 
	C343.623840,591.260498 344.129883,592.136902 344.142120,593.171814 
	C344.198486,597.946594 344.191803,602.722778 344.141846,607.497742 
	C344.129456,608.680847 343.817108,609.971741 342.264954,609.829529 
	C340.723633,609.688293 340.859711,608.275635 340.698303,606.695862 
z"/>
<path fill="#000000" opacity="1.000000" stroke="none" 
	d="
M483.216553,606.690796 
	C483.009308,608.449158 482.917694,609.829224 480.404785,609.863342 
	C478.993469,605.628479 479.763245,601.117188 479.726654,596.708862 
	C479.718872,595.772461 480.740997,595.499390 481.616821,595.673523 
	C482.778473,595.904480 483.153381,596.816528 483.170990,597.866638 
	C483.217743,600.656006 483.217133,603.446228 483.216553,606.690796 
z"/>
</svg>